<svg id="Calque_1" data-name="Calque 1" xmlns="http://www.w3.org/2000/svg" viewBox="0 0 383.01 782.2"><defs><style>.cls-1,.cls-2{fill:#93a955;}.cls-1{opacity:0.6;isolation:isolate;}.cls-3{fill:#fff;}.cls-4{fill:#338eb4;}.cls-5{fill:#f68b17;}.cls-6{fill:#f9be00;}</style></defs><path class="cls-1" d="M171.11,461.48l-.16-.14a1.09,1.09,0,0,0,.17.13Z"/><path class="cls-1" d="M171.22,568.71a8.55,8.55,0,0,0-.86.52c-28.14-47.8-28.57-73.94-1.27-106.89a7.85,7.85,0,0,0,.74.67C142.92,495.54,143.37,521.42,171.22,568.71Z"/><path class="cls-1" d="M178.73,582.48l-.34.25h0Z"/><path class="cls-1" d="M179.66,684.26a6.71,6.71,0,0,0-.86-.51c12.14-20.42,23.78-55.68.55-99.27a6.42,6.42,0,0,0,.81-.59C203.71,628,191.93,663.61,179.66,684.26Z"/><path class="cls-1" d="M169.89,334.47a6.51,6.51,0,0,0-.76.63c-26.72-33.5-26.82-76.28-.34-108.92a6.83,6.83,0,0,0,.73.69C143.4,259.13,143.53,301.36,169.89,334.47Z"/><path class="cls-1" d="M179.54,215.73h0l0,0Z"/><path class="cls-1" d="M170,99.4a6.61,6.61,0,0,0-.77.63c-12.68-15.11-14.93-30.13-14.37-40.58,1-18.17,10.76-33.63,20.06-40.88l.61.79c-9.11,7.11-18.73,22.28-19.67,40.14C155.29,69.77,157.51,84.53,170,99.4Z"/><path class="cls-1" d="M171,101.15l-.29.24-.18.16h0A3.56,3.56,0,0,1,171,101.15Z"/><path class="cls-1" d="M201.42,160.81c.29,18.77-6.8,37.1-20.57,53.41a7.89,7.89,0,0,0-.76-.65c13.62-16.13,20.62-34.22,20.33-52.74-.28-17.39-7-34-19.56-48.44a9.32,9.32,0,0,0,.67-.74C194.3,126.3,201.14,143.15,201.42,160.81Z"/><path class="cls-1" d="M181.23,449.78a9.61,9.61,0,0,0-.7-.73c26.52-33.33,26.44-68.76-.24-101.15a8.06,8.06,0,0,0,.74-.69C208.12,380.05,208.19,416,181.23,449.78Z"/><path class="cls-1" d="M175.52,781.42l-.63.78c-14.92-12-20.65-29.06-17-50.72,2.06-12.32,7-24.39,12-33.37a8,8,0,0,0,.83.55c-4.85,8.89-9.78,20.81-11.81,33C155.29,752.92,160.9,769.67,175.52,781.42Z"/><path class="cls-1" d="M181.37,221.19a7.74,7.74,0,0,1-.21,1h0a7.74,7.74,0,0,0,.21-1Z"/><path class="cls-1" d="M369.52,143.27v0c-.12,1.8-5.09,69.92-41.16,82.5-20.39,7.12-46.7,11.78-74.1,11.78-24.34,0-49.55-3.68-72.23-12.62a6.41,6.41,0,0,0,.5-.88c47.94,18.84,107.2,14.13,145.5.78,30-10.47,38.15-60.47,40-76.62a25.08,25.08,0,0,1-6.25,8.06c-6.65,5.87-20.54,12.88-49,13-42.2.19-68.68,20.44-88,35.23a152.65,152.65,0,0,1-14.92,10.59c-10.79,6.25-20.32,7.39-26.67,7.16a6.5,6.5,0,0,0,.18-1c6.18.2,15.46-.94,26-7a153.34,153.34,0,0,0,14.81-10.53c19.45-14.87,46.08-35.24,88.62-35.43,53.48-.23,55.72-24.72,55.75-25.09h0Z"/><path class="cls-1" d="M382.39,495.31c-.12.09-12,8.91-58.74-17.82-36.94-21.11-70.18-16.78-94.46-13.62a153.27,153.27,0,0,1-18.09,1.7H211c-13.63,0-22.77-4.61-27.73-8.09a8.74,8.74,0,0,1-.24,1c5.17,3.56,14.41,8.05,28,8.05h.1a154.67,154.67,0,0,0,18.22-1.71c24.14-3.14,57.19-7.44,93.83,13.5,34.66,19.81,50.39,20.33,56.53,19-11,8.21-53.19,37.64-85.5,31.49-25.3-4.81-72.83-20.17-111.63-69.12a8.12,8.12,0,0,1-.51,1c39,48.92,86.57,64.31,112,69.14a50.84,50.84,0,0,0,9.44.85c36.23,0,79.12-34.26,79.58-34.63Zm-201-39.23a6.45,6.45,0,0,1-.13,1.17h0a7.61,7.61,0,0,0,.13-1.18Zm-.3,1.86a6.37,6.37,0,0,1-.42,1.08h0a6.82,6.82,0,0,0,.42-1.09Z"/><path class="cls-1" d="M181.25,692.76l0,.14a.88.88,0,0,0,.05-.15ZM333.23,558v0l-1,.27c.07.24,6.09,24.21-44.54,41.89-40.16,14-58.71,42-72.25,62.35a153.15,153.15,0,0,1-10.58,14.77c-7.63,8.8-15.66,12.93-21.51,14.87a6.53,6.53,0,0,1-.18,1.09,39.52,39.52,0,0,0,4-1.48c4.38.31,8.68.45,12.91.45,59.95,0,104.13-29.42,121.06-42.76C351.18,625.79,333.71,559.77,333.23,558Zm-12.67,90.63c-17.87,14.07-66.23,46.15-131.44,42.21a52,52,0,0,0,16.52-13A151.73,151.73,0,0,0,216.3,663c13.47-20.28,31.91-48,71.75-62,26.88-9.39,37.73-20.54,42.11-28.25a25.17,25.17,0,0,0,3.28-9.66C336.94,579,345.54,629,320.56,648.64Z"/><path class="cls-1" d="M168.61,575.16h0c0-.15.06-.29.1-.43A3.39,3.39,0,0,0,168.61,575.16Zm.3-1a3.93,3.93,0,0,0-.19.58c.06-.2.13-.39.2-.58Zm-25.81-16a153.53,153.53,0,0,1-10.59-14.77C119,523,100.42,495,60.26,481c-50.45-17.62-44.65-41.48-44.54-41.88h0l-1-.27s0,0,0,0c-.48,1.77-17.95,67.78,12.06,91.41,31.38,24.71,86.51,48,139.73,45a9.27,9.27,0,0,1,.41-1.59C161,572.13,151.8,568.17,143.1,558.13ZM27.43,529.52c-25-19.68-16.39-69.6-12.89-85.47a25.27,25.27,0,0,0,3.29,9.66c4.37,7.7,15.22,18.86,42.1,28.24,39.85,13.92,58.29,41.69,71.75,62a153.23,153.23,0,0,0,10.66,14.88c8.32,9.6,17.13,13.75,23.22,15.55C112.88,577,58.47,554,27.43,529.52Z"/><path class="cls-1" d="M168.21,346.52c-28.06,35.18-66.57,45.8-82.12,48.75-21.48,4.08-43.53-22.14-51-32,5.29,3.26,17.32,6.21,40.76-7.19,25.92-14.82,49.32-11.77,66.4-9.55a107.07,107.07,0,0,0,12.92,1.21,37.47,37.47,0,0,0,12.5-1.95,8.19,8.19,0,0,1-.5-.92,37.25,37.25,0,0,1-11.92,1.87h-.08a107.56,107.56,0,0,1-12.79-1.2c-17.22-2.24-40.81-5.31-67,9.67-13,7.45-22.45,9.7-29.09,9.7-10.06,0-13.73-5.18-13.81-5.31l-.84.55,0,0c.94,1.4,24.94,36.54,49.86,36.54a24.67,24.67,0,0,0,4.76-.45c15.63-3,54.34-13.63,82.6-49A9.83,9.83,0,0,1,168.21,346.52Z"/><path class="cls-1" d="M166.51,105.09a50.6,50.6,0,0,1-18.94-9.92,151.54,151.54,0,0,1-13-12.71c-16.88-17.73-40-42-82-48.85C3.23,25.57,1.45,3.58,1.45.47c0-.23,0-.35,0-.37h0L.47,0a0,0,0,0,1,0,0C.31,1.78-5.46,69.89,28.21,88c15.43,8.28,50.37,23.89,94.58,23.88a183.53,183.53,0,0,0,43.64-5.23c0-.1,0-.2,0-.3A8.25,8.25,0,0,1,166.51,105.09Zm-137.82-18C.67,72,.46,21.39,1.16,5.15a25,25,0,0,0,4.91,8.94C11.71,20.92,24.34,30,52.44,34.6c41.65,6.78,64.63,30.92,81.41,48.55A152.31,152.31,0,0,0,146.94,96a52.07,52.07,0,0,0,18.51,9.88C101.91,121,48.73,97.84,28.69,87.08Zm139.78,18.49h0a6.17,6.17,0,0,0,0,.75,2.17,2.17,0,0,0,0,.26h0a2.17,2.17,0,0,1,0-.26A6,6,0,0,1,168.47,105.57Z"/><g id="Ellipse_8" data-name="Ellipse 8"><path class="cls-2" d="M181.42,106.1v.42a1.48,1.48,0,0,1,0,.21c0,.13,0,.27,0,.41s0,.27-.06.4a2.74,2.74,0,0,1-.09.39c0,.13-.07.26-.11.39s-.09.25-.14.37-.1.25-.16.37-.11.23-.17.35-.14.24-.21.36a0,0,0,0,0,0,0,2.71,2.71,0,0,1-.24.35,6.79,6.79,0,0,1-.65.77,6.5,6.5,0,0,1-4.61,1.91,5.44,5.44,0,0,1-.57,0h-.17l-.49-.08-.34-.08-.19,0a1.6,1.6,0,0,1-.31-.1l-.08,0-.37-.14-.39-.18-.06,0-.27-.15-.07,0a4,4,0,0,1-.48-.32l-.3-.22a6.43,6.43,0,0,1-1.62-2,5,5,0,0,1-.27-.57c-.08-.2-.15-.4-.22-.6s-.11-.41-.16-.62a5,5,0,0,1-.09-.56v0a.34.34,0,0,1,0-.1s0,0,0-.06a.28.28,0,0,1,0-.09,1.27,1.27,0,0,1,0-.2,2.17,2.17,0,0,1,0-.26,6,6,0,0,1,0-.74,5.62,5.62,0,0,1,.09-.57c.05-.21.1-.42.16-.62a5.89,5.89,0,0,1,.21-.59,6.53,6.53,0,0,1,1.4-2.07l.19-.17.18-.16.29-.24.3-.23h0l.4-.25.37-.19a1.92,1.92,0,0,1,.25-.12l.2-.08a3.41,3.41,0,0,1,.48-.18l.49-.13.25,0,.32,0h.1l.21,0a5.07,5.07,0,0,1,.55,0,6.46,6.46,0,0,1,2.53.51,7.4,7.4,0,0,1,1.11.6,6.94,6.94,0,0,1,1,.8c.14.14.28.3.42.46a7.46,7.46,0,0,1,.7,1h0c.06.12.12.23.17.35s.11.24.16.36.1.25.14.37.08.26.11.39a1.6,1.6,0,0,1,.05.21,1.16,1.16,0,0,1,0,.18,2.57,2.57,0,0,1,.06.4c0,.14,0,.28,0,.41A1.48,1.48,0,0,1,181.42,106.1Z"/><path class="cls-2" d="M170.51,101.54a3.56,3.56,0,0,1,.48-.39l-.29.24-.18.16-.19.17C170.38,101.66,170.45,101.6,170.51,101.54Z"/><path class="cls-2" d="M179.94,102.18a6.45,6.45,0,0,1,.7,1A7.46,7.46,0,0,0,179.94,102.18Z"/><path class="cls-2" d="M181.43,106.31a1.48,1.48,0,0,1,0,.21v-.42A1.48,1.48,0,0,1,181.43,106.31Z"/><path class="cls-3" d="M170.51,101.54c-.06.06-.13.12-.18.18l.19-.17.18-.16.29-.24A3.56,3.56,0,0,0,170.51,101.54Zm9.43.64a7.46,7.46,0,0,1,.7,1A6.45,6.45,0,0,0,179.94,102.18Zm1.48,3.92v.42a2.21,2.21,0,0,0,0-.42Z"/></g><g id="Ellipse_10" data-name="Ellipse 10"><path class="cls-4" d="M181.42,341.1v.42a1.48,1.48,0,0,1,0,.21c0,.13,0,.27,0,.41s0,.27-.06.4a2.74,2.74,0,0,1-.09.39c0,.13-.07.26-.11.39s-.09.25-.14.37-.1.25-.16.37-.11.23-.17.35a7.28,7.28,0,0,1-.7,1l-.2.22h0a3.51,3.51,0,0,1-.33.34l-.39.35a6.18,6.18,0,0,1-.9.61l-.34.17-.05,0a2.32,2.32,0,0,1-.36.16,2.5,2.5,0,0,1-.38.15l-.31.09-.15,0h-.05a2.57,2.57,0,0,1-.38.08,5,5,0,0,1-.54.08,5.68,5.68,0,0,1-.59,0h-.08l-.49,0-.17,0h-.06a3.5,3.5,0,0,1-.45-.07l-.16,0-.56-.14a3.34,3.34,0,0,1-.44-.17,2.76,2.76,0,0,1-.47-.2l0,0c-.1,0-.19-.1-.29-.15a5.19,5.19,0,0,1-.5-.31l-.3-.22a2.51,2.51,0,0,1-.31-.26l-.09-.08c-.12-.1-.23-.22-.34-.33l-.08-.08-.22-.25a6.53,6.53,0,0,1-.7-1,2.44,2.44,0,0,1-.14-.28h0l-.15-.32c-.07-.18-.14-.37-.2-.56s-.11-.41-.16-.62-.07-.43-.1-.65,0-.44,0-.66a6.62,6.62,0,0,1,.5-2.52,6.53,6.53,0,0,1,1.4-2.07l.06-.06a5.73,5.73,0,0,1,.76-.64l0,0a4.53,4.53,0,0,1,.46-.3,2.69,2.69,0,0,1,.29-.16l.46-.22a2.74,2.74,0,0,1,.4-.15l.25-.08h0l.08,0,.28-.07h.09l.16,0,.41-.07h0l.2,0a5.12,5.12,0,0,1,.56,0,6.46,6.46,0,0,1,2.53.51,7.4,7.4,0,0,1,1.11.6,6.27,6.27,0,0,1,1,.8c.14.14.28.3.42.46a7.46,7.46,0,0,1,.7,1h0c.06.12.12.23.17.35s.11.24.16.36.1.25.14.37.08.26.11.39a1.6,1.6,0,0,1,.05.21,1.16,1.16,0,0,1,0,.18,2.57,2.57,0,0,1,.06.4c0,.14,0,.28,0,.41A1.48,1.48,0,0,1,181.42,341.1Z"/><path class="cls-4" d="M179.94,345.45a7.28,7.28,0,0,0,.7-1A6.53,6.53,0,0,1,179.94,345.45Z"/><path class="cls-4" d="M179.94,337.18a6.45,6.45,0,0,1,.7,1A7.46,7.46,0,0,0,179.94,337.18Z"/><path class="cls-4" d="M181.43,341.31a1.48,1.48,0,0,1,0,.21v-.42A1.48,1.48,0,0,1,181.43,341.31Z"/><path class="cls-4" d="M181.42,341.1v.42a2.21,2.21,0,0,0,0-.42Zm-1.48-3.92a7.46,7.46,0,0,1,.7,1A6.45,6.45,0,0,0,179.94,337.18Zm0,8.27a6.53,6.53,0,0,0,.7-1A7.28,7.28,0,0,1,179.94,345.45Z"/></g><g id="Ellipse_12" data-name="Ellipse 12"><path class="cls-2" d="M181.42,576.81V577a1.7,1.7,0,0,1,0,.22c0,.15,0,.3,0,.44a7.53,7.53,0,0,1-.73,2.44h0a7.74,7.74,0,0,1-.7,1.11,7.39,7.39,0,0,1-.75.83l-.13.12-.33.27-.34.24c-.15.1-.3.2-.46.29a5.39,5.39,0,0,1-.48.25,6.89,6.89,0,0,1-1.21.41,6.43,6.43,0,0,1-1.32.14,4.63,4.63,0,0,1-.65,0,2.32,2.32,0,0,1-.38-.06h-.12l-.17,0-.16,0-.22-.06-.23-.07a5.6,5.6,0,0,1-1.17-.53,6.77,6.77,0,0,1-1-.75,6.61,6.61,0,0,1-.88-1,6.3,6.3,0,0,1-.37-.53.22.22,0,0,1,0-.08c-.1-.16-.19-.33-.28-.5a6.65,6.65,0,0,1-.27-.61h0a7.64,7.64,0,0,1-.5-2.72c0-.24,0-.48,0-.71s0-.35.07-.51l0-.15a.14.14,0,0,1,0-.09,1.33,1.33,0,0,1,.05-.19c0-.15.06-.29.1-.43s.13-.39.2-.58l0-.06a5.63,5.63,0,0,1,.27-.61,7,7,0,0,1,.7-1.12,5.63,5.63,0,0,1,.38-.45l.1-.11a4.68,4.68,0,0,1,.39-.38l0,0c.13-.11.26-.22.4-.32l.18-.13c.15-.11.3-.2.45-.29s.27-.15.41-.22l.06,0,.21-.09,0,0a4.13,4.13,0,0,1,.45-.17l.53-.16.12,0,.12,0h.07a2,2,0,0,1,.43-.07,4.63,4.63,0,0,1,.65,0h0a3.44,3.44,0,0,1,.46,0h.27c.13,0,.25,0,.37.06l.1,0,.2,0a5.08,5.08,0,0,1,.52.15,4.24,4.24,0,0,1,.59.23,3.68,3.68,0,0,1,.44.23l0,0a1,1,0,0,1,.24.14,2.49,2.49,0,0,1,.3.19,2.78,2.78,0,0,1,.34.26l.17.14a4.73,4.73,0,0,1,.4.37l0,0a1.29,1.29,0,0,1,.16.18q.19.21.36.42a7,7,0,0,1,.7,1.12c.06.12.12.25.17.38s.11.26.16.39.1.27.14.4a3.25,3.25,0,0,1,.11.42c0,.14.06.28.09.42a3.18,3.18,0,0,1,.06.43c0,.14,0,.29,0,.44S181.42,576.66,181.42,576.81Z"/><path class="cls-2" d="M170.79,582.21a6.77,6.77,0,0,0,1,.75A6.15,6.15,0,0,1,170.79,582.21Z"/><path class="cls-2" d="M176.24,583.67a6.89,6.89,0,0,0,1.21-.41A5.57,5.57,0,0,1,176.24,583.67Z"/><path class="cls-2" d="M178.39,582.72l.34-.24-.34.25a4.34,4.34,0,0,1-.46.28C178.09,582.92,178.24,582.82,178.39,582.72Z"/><path class="cls-2" d="M179.94,581.26a7.74,7.74,0,0,0,.7-1.11A6.31,6.31,0,0,1,179.94,581.26Z"/><path class="cls-2" d="M180.64,573.48a7,7,0,0,0-.7-1.12A6.4,6.4,0,0,1,180.64,573.48Z"/><path class="cls-2" d="M180.64,580.14a7.53,7.53,0,0,0,.73-2.44A7.13,7.13,0,0,1,180.64,580.14Z"/><path class="cls-2" d="M181.42,577v-.23c0-.15,0-.3,0-.45a3.39,3.39,0,0,1,0,.45A1.85,1.85,0,0,1,181.42,577Z"/><path class="cls-2" d="M181.43,576.81a3.39,3.39,0,0,0,0-.45c0,.15,0,.3,0,.45V577A1.85,1.85,0,0,0,181.43,576.81Zm-.79,3.33a7.13,7.13,0,0,0,.73-2.44A7.53,7.53,0,0,1,180.64,580.14Zm-.7-7.78a7,7,0,0,1,.7,1.12A6.4,6.4,0,0,0,179.94,572.36Zm0,8.9a6.31,6.31,0,0,0,.7-1.11A7.74,7.74,0,0,1,179.94,581.26Zm-1.55,1.46c-.15.1-.3.2-.46.29a4.34,4.34,0,0,0,.46-.28l.34-.25Zm-2.15.95a5.57,5.57,0,0,0,1.21-.41A6.89,6.89,0,0,1,176.24,583.67Zm-5.45-1.46a6.15,6.15,0,0,0,1,.75A6.77,6.77,0,0,1,170.79,582.21Z"/></g><g id="Ellipse_9" data-name="Ellipse 9"><path class="cls-5" d="M181.42,220.1v.21a6.4,6.4,0,0,1-.06.88,7.74,7.74,0,0,1-.21,1c0,.05,0,.09,0,.14a.78.78,0,0,1-.05.14c0,.09-.06.18-.1.27a.14.14,0,0,1,0,.06c-.08.18-.17.36-.26.54a0,0,0,0,1,0,0l0,.06-.24.4-.13.2-.14.19h0c-.05.08-.12.17-.18.25a5.79,5.79,0,0,1-.48.51c-.16.16-.32.3-.5.45l-.13.09a3.28,3.28,0,0,1-.38.27l-.21.13-.07,0-.27.15-.06,0a5.6,5.6,0,0,1-.8.33l-.3.1-.35.09-.25.06-.47.07h-.18a5.07,5.07,0,0,1-.55,0h0a5.49,5.49,0,0,1-.58,0,1.09,1.09,0,0,1-.26,0H174l-.3-.05a3.28,3.28,0,0,1-.45-.11h-.07l-.27-.08-.07,0-.38-.14-.1,0-.06,0-.3-.14a0,0,0,0,0,0,0,.94.94,0,0,1-.22-.12.53.53,0,0,1-.1-.06l-.07,0a2.38,2.38,0,0,1-.3-.18,5.86,5.86,0,0,1-.5-.37,6,6,0,0,1-.72-.71,1.29,1.29,0,0,1-.16-.17,6.53,6.53,0,0,1-.7-1,4,4,0,0,1-.26-.56,1.11,1.11,0,0,1-.07-.16c-.06-.15-.11-.3-.16-.45s-.11-.41-.16-.62-.07-.43-.1-.65,0-.44,0-.66a6.62,6.62,0,0,1,.5-2.52,6.53,6.53,0,0,1,1.4-2.07,7.4,7.4,0,0,1,1-.8c.14-.09.28-.18.43-.26l.24-.13a2.64,2.64,0,0,1,.38-.18l.08,0,.57-.21c.24-.07.48-.13.73-.18a3.47,3.47,0,0,1,.45-.06l.21,0h0a4.18,4.18,0,0,1,.5,0,6.46,6.46,0,0,1,2.53.51,7.4,7.4,0,0,1,1.11.6l.23.17a3.57,3.57,0,0,1,.38.3,0,0,0,0,1,0,0l.23.21.11.11,0,0c.14.14.27.29.4.44a7.46,7.46,0,0,1,.7,1h0c.06.12.12.23.17.35s.11.24.16.36.1.25.14.37.08.26.11.39a1.6,1.6,0,0,1,.05.21,1.16,1.16,0,0,1,0,.18,2.57,2.57,0,0,1,.06.4c0,.14,0,.28,0,.41A1.48,1.48,0,0,1,181.42,220.1Z"/><path class="cls-5" d="M179.54,215.73h0l0,0Z"/><path class="cls-5" d="M180.13,224.2c-.06.08-.12.17-.19.25.06-.08.13-.17.18-.25Z"/><path class="cls-5" d="M180.64,217.21a7.46,7.46,0,0,0-.7-1A6.45,6.45,0,0,1,180.64,217.21Z"/><path class="cls-5" d="M181.43,220.31a6.4,6.4,0,0,1-.06.88,7.74,7.74,0,0,1-.21,1l0,.13h0c0-.05,0-.09,0-.14a7.74,7.74,0,0,0,.21-1,6.4,6.4,0,0,0,.06-.88v-.21A1.48,1.48,0,0,1,181.43,220.31Z"/><path class="cls-3" d="M181.15,222.17c0,.05,0,.09,0,.14h0l0-.13Zm-1.63-6.45,0,0h0Zm.6,8.48c-.05.08-.12.17-.18.25.07-.08.13-.17.19-.25Zm-.18-8a7.46,7.46,0,0,1,.7,1A6.45,6.45,0,0,0,179.94,216.18Zm1.48,3.92v.21a6.4,6.4,0,0,1-.06.88,7.74,7.74,0,0,1-.21,1c0,.05,0,.09,0,.14h0l0-.13a7.74,7.74,0,0,0,.21-1,6.4,6.4,0,0,0,.06-.88A1.48,1.48,0,0,0,181.42,220.1Z"/></g><g id="Ellipse_11" data-name="Ellipse 11"><path class="cls-6" d="M171.46,461.73c-.12-.08-.24-.16-.35-.25l-.16-.14a1.09,1.09,0,0,0,.17.13C171.23,461.56,171.34,461.65,171.46,461.73Z"/><path class="cls-6" d="M177.45,462.26a5.57,5.57,0,0,1-1.21.41A6.89,6.89,0,0,0,177.45,462.26Z"/><path class="cls-6" d="M180.64,459.15a6.31,6.31,0,0,1-.7,1.11A7.74,7.74,0,0,0,180.64,459.15Z"/><path class="cls-6" d="M181.2,457.66c0,.1,0,.19-.08.28a6.82,6.82,0,0,1-.42,1.09l0,.05s0,0,0-.06a6.37,6.37,0,0,0,.42-1.08Z"/><path class="cls-6" d="M181.43,455.81a2.44,2.44,0,0,1,0,.27,7.61,7.61,0,0,1-.13,1.18,3,3,0,0,1-.08.32c0-.11,0-.22.07-.33a6.45,6.45,0,0,0,.13-1.17,2.44,2.44,0,0,0,0-.27c0-.15,0-.3,0-.45A3.39,3.39,0,0,1,181.43,455.81Z"/><path class="cls-3" d="M181.41,455.36c0,.15,0,.3,0,.45a2.44,2.44,0,0,1,0,.27,6.45,6.45,0,0,1-.13,1.17c0,.11,0,.22-.07.33a3,3,0,0,0,.08-.32,7.61,7.61,0,0,0,.13-1.18,2.44,2.44,0,0,0,0-.27A3.39,3.39,0,0,0,181.41,455.36Zm-.3,2.58a6.37,6.37,0,0,1-.42,1.08s0,0,0,.06l0-.05a6.82,6.82,0,0,0,.42-1.09c0-.09,0-.18.08-.28Zm-1.17,2.32a6.31,6.31,0,0,0,.7-1.11A7.74,7.74,0,0,1,179.94,460.26Zm-3.7,2.41a5.57,5.57,0,0,0,1.21-.41A6.89,6.89,0,0,1,176.24,462.67Zm-5.12-1.2a1.09,1.09,0,0,1-.17-.13l.16.14c.11.09.23.17.35.25C171.34,461.65,171.23,461.56,171.12,461.47Z"/><path class="cls-6" d="M181.42,455.81a2.44,2.44,0,0,1,0,.27,6.45,6.45,0,0,1-.13,1.17c0,.11,0,.22-.07.33v0s0,0,0,.05l-.09.28a6.37,6.37,0,0,1-.42,1.08s0,0,0,.06l0,.06h0a7.74,7.74,0,0,1-.7,1.11,7.23,7.23,0,0,1-.88.95,4.12,4.12,0,0,1-.4.33l-.2.14a3.37,3.37,0,0,1-.31.21l-.27.15-.43.22a6.89,6.89,0,0,1-1.21.41,6.43,6.43,0,0,1-1.32.14,4.63,4.63,0,0,1-.65,0,2,2,0,0,1-.43-.07h-.07l-.17,0-.16,0-.22-.06-.23-.07a5.6,5.6,0,0,1-1.17-.53,3.61,3.61,0,0,1-.36-.23c-.12-.08-.23-.17-.34-.26a1.09,1.09,0,0,1-.17-.13l-.16-.13a5.29,5.29,0,0,1-.41-.41,6.3,6.3,0,0,1-.67-.83l0,0a3,3,0,0,1-.24-.38,6.73,6.73,0,0,1-.52-1,7.64,7.64,0,0,1-.5-2.72c0-.24,0-.48,0-.71a5.36,5.36,0,0,1,.1-.7c.05-.23.1-.45.16-.67s.1-.33.16-.48a1.07,1.07,0,0,1,.07-.19c.08-.2.17-.39.26-.58a7,7,0,0,1,.7-1.12c.13-.17.27-.34.42-.5a4.17,4.17,0,0,1,.37-.36,1.14,1.14,0,0,1,.11-.11c.11-.09.22-.19.34-.27l.23-.17.31-.2.14-.09.1-.05,0,0,.44-.23a4.92,4.92,0,0,1,.6-.23,5,5,0,0,1,.55-.16l.14,0h0a4,4,0,0,1,.48-.08h.12a4.21,4.21,0,0,1,.62,0H175a4.21,4.21,0,0,1,.62,0l.43.07.33.06h0l.47.14.49.19h0l.24.11a2.21,2.21,0,0,1,.34.18l.07,0,.36.24s0,0,.05,0a1.79,1.79,0,0,1,.28.2,1.56,1.56,0,0,1,.2.16,1.93,1.93,0,0,1,.3.27l.06.05a6.89,6.89,0,0,1,.67.75h0a6.31,6.31,0,0,1,.7,1.11c.06.12.12.25.17.38s.11.26.16.39.18.54.25.82a7.53,7.53,0,0,1,.15.85c0,.14,0,.29,0,.44S181.42,455.66,181.42,455.81Z"/></g><g id="Ellipse_13" data-name="Ellipse 13"><path class="cls-6" d="M181.42,691.31a6.32,6.32,0,0,1-.17,1.45l0,.14s0,.09,0,.14c-.07.23-.14.45-.22.67,0,0,0,.1-.05.15h0c-.08.18-.17.36-.26.54a7.28,7.28,0,0,1-.7,1,6.52,6.52,0,0,1-5,2.36,6.42,6.42,0,0,1-3.28-.89h0a5.75,5.75,0,0,1-.83-.56,7.65,7.65,0,0,1-.9-.9,7.28,7.28,0,0,1-.7-1,7.89,7.89,0,0,1-.33-.72,6.5,6.5,0,0,1-.45-2.38,6.62,6.62,0,0,1,.5-2.52,6.53,6.53,0,0,1,1.4-2.07,7.4,7.4,0,0,1,1-.8,6.48,6.48,0,0,1,3.63-1.11,6.31,6.31,0,0,1,2.84.66h0a6.18,6.18,0,0,1,.79.45.18.18,0,0,0,.07.05,3.82,3.82,0,0,1,.46.36c.15.13.29.25.43.39s.28.3.42.46a7.46,7.46,0,0,1,.7,1h0A6.56,6.56,0,0,1,181.42,691.31Z"/><path class="cls-6" d="M179.94,695.45a7.28,7.28,0,0,0,.7-1A6.53,6.53,0,0,1,179.94,695.45Z"/><path class="cls-6" d="M180.64,688.21a7.46,7.46,0,0,0-.7-1A6.45,6.45,0,0,1,180.64,688.21Z"/><path class="cls-6" d="M181.43,691.31a6.83,6.83,0,0,1-.16,1.44.88.88,0,0,1-.05.15l0-.14a6.32,6.32,0,0,0,.17-1.45,6.56,6.56,0,0,0-.78-3.09A6.37,6.37,0,0,1,181.43,691.31Z"/><path class="cls-3" d="M179.94,695.45a6.53,6.53,0,0,0,.7-1A7.28,7.28,0,0,1,179.94,695.45Zm0-8.27a7.46,7.46,0,0,1,.7,1A6.45,6.45,0,0,0,179.94,687.18Zm.7,1a6.56,6.56,0,0,1,.78,3.09,6.32,6.32,0,0,1-.17,1.45l0,.14a.88.88,0,0,0,.05-.15,6.83,6.83,0,0,0,.16-1.44A6.37,6.37,0,0,0,180.64,688.22Z"/></g></svg>