<svg id="Calque_1" data-name="Calque 1" xmlns="http://www.w3.org/2000/svg" viewBox="0 0 134.5 147.99"><defs><style>.cls-1{fill:#f80000;}</style></defs><g id="Icon_feather-trash-2" data-name="Icon feather-trash-2"><path class="cls-1" d="M127.86,26.91h-27V20.14A20.17,20.17,0,0,0,80.74,0H53.83A20.17,20.17,0,0,0,33.69,20.14v6.77h-27a6.65,6.65,0,0,0,0,13.3h6.84v87.65A20.16,20.16,0,0,0,33.63,148h67.31a20.16,20.16,0,0,0,20.14-20.13V40.21h6.78a6.65,6.65,0,0,0,0-13.3ZM47,20.14a6.84,6.84,0,0,1,6.85-6.85H80.74a6.84,6.84,0,0,1,6.85,6.85v6.77H47Zm60.81,107.72a6.83,6.83,0,0,1-6.85,6.84H33.63a6.83,6.83,0,0,1-6.85-6.84V40.21h81Z"/><path class="cls-1" d="M53.8,114.31a6.64,6.64,0,0,1-6.64-6.65V67.25a6.65,6.65,0,0,1,13.29,0v40.41A6.65,6.65,0,0,1,53.8,114.31Z"/><path class="cls-1" d="M80.74,114.31a6.64,6.64,0,0,1-6.64-6.65V67.25a6.65,6.65,0,0,1,13.29,0v40.41A6.65,6.65,0,0,1,80.74,114.31Z"/></g></svg>